<?xml version="1.0" encoding="UTF-8" standalone="no"?>
<svg
   xmlns:dc="http://purl.org/dc/elements/1.1/"
   xmlns:cc="http://creativecommons.org/ns#"
   xmlns:rdf="http://www.w3.org/1999/02/22-rdf-syntax-ns#"
   xmlns:svg="http://www.w3.org/2000/svg"
   xmlns="http://www.w3.org/2000/svg"
   xmlns:sodipodi="http://sodipodi.sourceforge.net/DTD/sodipodi-0.dtd"
   xmlns:inkscape="http://www.inkscape.org/namespaces/inkscape"
   version="1.1"
   id="Layer_1"
   x="0px"
   y="0px"
   viewBox="0 0 512 512"
   style="enable-background:new 0 0 512 512;"
   xml:space="preserve"
   sodipodi:docname="apple.svg"
   inkscape:version="1.0.1 (3bc2e813f5, 2020-09-07)"><metadata
   id="metadata51"><rdf:RDF><cc:Work
       rdf:about=""><dc:format>image/svg+xml</dc:format><dc:type
         rdf:resource="http://purl.org/dc/dcmitype/StillImage" /></cc:Work></rdf:RDF></metadata><defs
   id="defs49" /><sodipodi:namedview
   pagecolor="#ffffff"
   bordercolor="#666666"
   borderopacity="1"
   objecttolerance="10"
   gridtolerance="10"
   guidetolerance="10"
   inkscape:pageopacity="0"
   inkscape:pageshadow="2"
   inkscape:window-width="1920"
   inkscape:window-height="1017"
   id="namedview47"
   showgrid="false"
   inkscape:zoom="1.1739077"
   inkscape:cx="315.03451"
   inkscape:cy="324.82496"
   inkscape:window-x="-8"
   inkscape:window-y="-8"
   inkscape:window-maximized="1"
   inkscape:current-layer="Layer_1" />
<path
   style="fill:#aef071;fill-opacity:1"
   d="M465.19,285.054c0,61.607-40.062,146.747-88.501,193.258C355.207,498.967,332.069,512,310.042,512  c-13.922,0-27.808-2.236-39.754-5.843c-16.368-4.954-33.775-4.954-50.143,0C208.2,509.764,194.315,512,180.392,512  c-23.076,0-47.388-14.318-69.736-36.715c-47.042-47.104-85.412-129.947-85.412-190.232c0-88.945,53.207-142.683,103.238-155.654  c23.966-6.214,51.774-2.211,74.232,3.632c23.225,6.053,47.363,7.066,70.884,3.039c4.744-0.815,9.45-1.828,14.12-3.039  c22.459-5.843,50.254-9.846,74.232-3.632C411.984,142.371,465.19,196.109,465.19,285.054z"
   id="path2" />
<path
   style="fill:#80b053;fill-opacity:1"
   d="M376.687,478.307c-59.444,10.504-105.23,7.594-139.729-0.76  c-56.335-13.641-98.243-61.156-105.227-118.696c-17.493-144.11,76.667-186.066,76.667-186.066  c27.598,12.539,58.63,5.843,58.63,5.843c-19.803-19.79,6.572-42.558,6.572-42.558c-23.521,4.027-47.66,3.014-70.884-3.039  c-22.459-5.843-50.266-9.846-74.232-3.632C78.451,142.371,25.245,196.109,25.245,285.054C25.245,373.987,108.742,512,180.392,512  c13.922,0,27.808-2.236,39.754-5.843c16.368-4.954,33.774-4.954,50.143,0c11.946,3.607,25.831,5.843,39.754,5.843  c22.026,0,45.164-13.033,66.647-33.688C376.687,478.309,376.69,478.312,376.687,478.307z"
   id="path4" />
<path
   style="fill:#C7F492;"
   d="M486.756,5.506c0,0-12.354,86.116-77.419,111.182c-62.2,23.966-117.643-40.828-140.385-35.726  c-1.025,0.21-1.977,0.581-2.866,1.112c-0.037,0.012-0.049,0.025-0.049,0.025l0.012-0.049c0.766-2.322,25.708-76.616,89.761-81.484  C420.874-4.377,456.28,25.272,486.756,5.506z"
   id="path6" />
<path
   style="fill:#A3E261;"
   d="M486.756,5.506c0,0-39.531,48.179-95.122,48.179c-48.883,0-108.909,21.965-122.683,27.277  c-1.655,0.63-2.631,1.025-2.866,1.112c-0.037,0.012-0.049,0.025-0.049,0.025l0.012-0.049c0.766-2.322,25.708-76.616,89.761-81.484  C420.874-4.377,456.28,25.272,486.756,5.506z"
   id="path8" />
<ellipse
   transform="matrix(-0.0989 -0.9951 0.9951 -0.0989 186.5864 663.8789)"
   style="fill:#9cd665;fill-opacity:1"
   cx="393.878"
   cy="247.459"
   rx="44.464"
   ry="28.771"
   id="ellipse10" />
<path
   style="fill:#517035;fill-opacity:1"
   d="m 291.289,166.437 c 0,10.118 -15.887,18.543 -36.974,20.457 -6.35653,0.54227 -12.60149,0.5191 -18.555,-0.024 -20.89,-1.989 -36.591,-10.377 -36.591,-20.433 z"
   id="path12"
   sodipodi:nodetypes="ccccc" />
<path
   style="fill:#b25719"
   d="m 280.368,81.012 -33.787,51.316 c 2.532,10.402 4.719,21.866 6.14,34.108 0.778,6.609 1.334,13.441 1.594,20.457 -6.35653,0.54227 -12.60149,0.5191 -18.555,-0.024 -0.272,-7.017 -0.877,-13.836 -1.705,-20.433 -6.053,-47.969 -24.559,-83.3 -24.781,-83.695 -4.5075,-13.039566 11.00894,-19.488503 16.368,-8.696 0.544,1.038 7.35,14.046 14.219,34.8 l 25.041,-38.024 c 9.27232,-10.204236 20.69371,1.709193 15.466,10.191 z"
   id="path14"
   sodipodi:nodetypes="ccccccccccc" />
<g
   id="g16">
</g>
<g
   id="g18">
</g>
<g
   id="g20">
</g>
<g
   id="g22">
</g>
<g
   id="g24">
</g>
<g
   id="g26">
</g>
<g
   id="g28">
</g>
<g
   id="g30">
</g>
<g
   id="g32">
</g>
<g
   id="g34">
</g>
<g
   id="g36">
</g>
<g
   id="g38">
</g>
<g
   id="g40">
</g>
<g
   id="g42">
</g>
<g
   id="g44">
</g>
</svg>
